<svg width="10" height="8" viewBox="0 0 10 8" fill="none" xmlns="http://www.w3.org/2000/svg">
<path d="M2.33523 3.16477V7H0.792614V0.454545H2.26705V1.56676H2.34375C2.49432 1.20028 2.73438 0.909091 3.06392 0.693182C3.39631 0.477273 3.80682 0.369318 4.29545 0.369318C4.74716 0.369318 5.14063 0.465909 5.47585 0.659091C5.81392 0.852273 6.07528 1.1321 6.25994 1.49858C6.44744 1.86506 6.53977 2.30966 6.53693 2.83239V7H4.99432V3.07102C4.99432 2.63352 4.88068 2.29119 4.65341 2.04403C4.42898 1.79687 4.1179 1.6733 3.72017 1.6733C3.45028 1.6733 3.21023 1.73295 3 1.85227C2.79261 1.96875 2.62926 2.13778 2.50994 2.35938C2.39347 2.58097 2.33523 2.84943 2.33523 3.16477ZM9.0554 7.09375C8.79688 7.09375 8.57528 7.00284 8.39062 6.82102C8.20597 6.6392 8.11506 6.41761 8.1179 6.15625C8.11506 5.90057 8.20597 5.68182 8.39062 5.5C8.57528 5.31818 8.79688 5.22727 9.0554 5.22727C9.3054 5.22727 9.52273 5.31818 9.70739 5.5C9.89489 5.68182 9.99006 5.90057 9.9929 6.15625C9.99006 6.32955 9.9446 6.48722 9.85653 6.62926C9.77131 6.77131 9.65767 6.88494 9.51562 6.97017C9.37642 7.05256 9.22301 7.09375 9.0554 7.09375Z" fill="#FF92C2"/>
</svg>
